HIERARCHY
ROOT joint_0
{
	OFFSET 0.000000 0.000000 0.000000
	CHANNELS 6 Xposition Yposition Zposition Zrotation Yrotation Xrotation 
	JOINT joint_1
	{
		OFFSET 0.587158 0.057678 95.682007
		CHANNELS 3 Zrotation Yrotation Xrotation
		JOINT joint_2
		{
			OFFSET -7.116699 -0.219910 87.157959
			CHANNELS 3 Zrotation Yrotation Xrotation
			JOINT joint_3
			{
				OFFSET -5.892822 -0.290222 87.151001
				CHANNELS 3 Zrotation Yrotation Xrotation
				JOINT joint_4
				{
					OFFSET 5.544678 -0.099609 123.768066
					CHANNELS 3 Zrotation Yrotation Xrotation
					JOINT joint_5
					{
						OFFSET 41.981201 4.519775 84.257935
						CHANNELS 3 Zrotation Yrotation Xrotation
						End Site
						{
							OFFSET 0.000000 0.000000 0.000000
						}
					}
				}
				JOINT joint_6
				{
					OFFSET 3.940918 -26.976501 69.308105
					CHANNELS 3 Zrotation Yrotation Xrotation
					JOINT joint_7
					{
						OFFSET 4.776123 -152.592468 -16.842041
						CHANNELS 3 Zrotation Yrotation Xrotation
						JOINT joint_8
						{
							OFFSET 54.421875 -30.424072 -248.864014
							CHANNELS 3 Zrotation Yrotation Xrotation
							JOINT joint_9
							{
								OFFSET 42.120117 -33.387878 -236.524963
								CHANNELS 3 Zrotation Yrotation Xrotation
								End Site
								{
									OFFSET 0.000000 0.000000 0.000000
								}
							}
						}
					}
				}
				JOINT joint_10
				{
					OFFSET 2.312012 26.904114 69.425049
					CHANNELS 3 Zrotation Yrotation Xrotation
					JOINT joint_11
					{
						OFFSET 0.971436 152.197815 -20.626953
						CHANNELS 3 Zrotation Yrotation Xrotation
						JOINT joint_12
						{
							OFFSET 49.954102 28.991455 -249.970093
							CHANNELS 3 Zrotation Yrotation Xrotation
							JOINT joint_13
							{
								OFFSET 48.146973 19.598389 -236.919922
								CHANNELS 3 Zrotation Yrotation Xrotation
								End Site
								{
									OFFSET 0.000000 0.000000 0.000000
								}
							}
						}
					}
				}
			}
		}
	}
	JOINT joint_14
	{
		OFFSET 16.305664 -89.442932 -108.224976
		CHANNELS 3 Zrotation Yrotation Xrotation
		JOINT joint_15
		{
			OFFSET -22.282471 13.437134 -412.904968
			CHANNELS 3 Zrotation Yrotation Xrotation
			JOINT joint_16
			{
				OFFSET -45.426025 14.484802 -445.892029
				CHANNELS 3 Zrotation Yrotation Xrotation
				JOINT joint_17
				{
					OFFSET 173.389404 -9.944031 -76.473001
					CHANNELS 3 Zrotation Yrotation Xrotation
					End Site
					{
						OFFSET 0.000000 0.000000 0.000000
					}
				}
			}
		}
	}
	JOINT joint_18
	{
		OFFSET 13.392822 89.408875 -108.653992
		CHANNELS 3 Zrotation Yrotation Xrotation
		JOINT joint_19
		{
			OFFSET -29.032959 24.483521 -411.977966
			CHANNELS 3 Zrotation Yrotation Xrotation
			JOINT joint_20
			{
				OFFSET -30.530029 28.986328 -446.453018
				CHANNELS 3 Zrotation Yrotation Xrotation
				JOINT joint_21
				{
					OFFSET 170.330078 33.400757 -76.698997
					CHANNELS 3 Zrotation Yrotation Xrotation
					End Site
					{
						OFFSET 0.000000 0.000000 0.000000
					}
				}
			}
		}
	}
}
MOTION
Frames: 7
Frame Time: 0.016667
-2370.135010 942.470154 1060.220947 -18.440440 21.956316 0.929665 -3.789154 -6.602820 4.934385 0.096957 1.066766 -0.997259 1.113878 -1.370547 0.618328 -3.952616 -16.635655 11.125459 0.000000 0.000000 0.000000 0.827082 11.956776 1.721591 16.251995 14.096657 -10.520072 -168.293999 -86.256874 140.455474 0.000000 0.000000 0.000000 3.172174 9.470666 4.624577 6.129486 10.152243 -0.370910 -0.912494 -34.631731 -5.003702 0.000000 0.000000 0.000000 10.445339 -35.570696 -29.095396 12.002813 42.437648 19.858077 12.099172 1.676424 4.895068 0.000000 0.000000 0.000000 -1.875839 -22.966069 5.164814 4.927466 14.345567 -2.658686 3.575735 -1.050714 1.700197 0.000000 0.000000 0.000000 
-2355.220703 939.292786 1064.084961 -19.240816 22.730570 0.800011 -3.672461 -6.622732 5.126114 0.065225 1.037455 -1.056801 1.078000 -1.360515 0.689665 -4.011457 -16.701561 11.134605 0.000000 0.000000 0.000000 0.624853 12.056297 1.813512 18.745671 15.071508 -10.402457 -167.101601 -77.079741 139.887306 0.000000 0.000000 0.000000 3.720220 10.230574 4.718307 7.185846 10.939301 -0.906884 -0.634662 -41.186948 -5.031548 0.000000 0.000000 0.000000 10.410526 -37.275913 -29.043764 11.779595 39.577604 18.190551 11.648531 0.575935 4.646649 0.000000 0.000000 0.000000 -1.639695 -22.261839 4.834251 4.690913 13.144025 -2.262052 3.559778 0.614106 1.378656 0.000000 0.000000 0.000000 
-2340.207031 935.243103 1067.582031 -20.175112 23.497770 0.632316 -3.515129 -6.711328 5.281380 0.064092 1.049377 -1.093944 1.074591 -1.361134 0.730236 -4.058669 -16.716661 11.149390 0.000000 0.000000 0.000000 0.396165 11.992136 1.957347 20.897799 15.939960 -10.618798 -165.941871 -68.155930 140.763184 0.000000 0.000000 0.000000 4.337746 11.142442 5.081034 8.290454 11.828743 -1.341444 -0.408760 -48.354983 -5.565766 0.000000 0.000000 0.000000 10.205338 -38.769393 -28.624990 11.084001 35.919621 15.900773 10.636574 -0.092579 4.210660 0.000000 0.000000 0.000000 -1.414664 -21.622803 4.639489 4.414225 12.170337 -1.959115 3.460293 2.246531 1.026297 0.000000 0.000000 0.000000 
-2325.145996 930.276550 1070.503052 -21.243565 24.289569 0.437072 -3.355869 -6.918600 5.302056 0.089919 1.126003 -1.072108 1.106427 -1.377585 0.709508 -4.106616 -16.687716 11.223618 0.000000 0.000000 0.000000 0.190702 11.797010 2.275601 22.459903 16.689994 -11.424790 -164.822236 -59.690751 143.073365 0.000000 0.000000 0.000000 5.093645 12.223292 5.861243 9.461243 12.815266 -1.635179 -0.208347 -56.345868 -6.708094 0.000000 0.000000 0.000000 9.577689 -39.920782 -27.731036 9.528010 31.127652 12.826338 8.699200 -0.051478 3.460320 0.000000 0.000000 0.000000 -1.246955 -21.125937 4.661652 4.073637 11.548385 -1.872748 3.213598 3.708136 0.641775 0.000000 0.000000 0.000000 
-2309.984863 924.437744 1073.055054 -22.193220 24.955207 0.328390 -3.190042 -6.990066 5.192831 0.066992 1.137135 -1.010921 1.060420 -1.398171 0.678466 -4.145734 -16.607196 11.330149 0.000000 0.000000 0.000000 -0.043196 11.393287 2.635816 23.386536 17.198707 -12.654842 -163.668103 -52.571794 146.571808 0.000000 0.000000 0.000000 5.965139 13.408206 6.756205 10.666849 13.797699 -1.624106 0.042972 -64.860464 -8.141803 0.000000 0.000000 0.000000 8.509683 -40.387083 -26.449043 7.283817 24.830325 9.394237 6.509675 1.363680 2.688718 0.000000 0.000000 0.000000 -1.158826 -20.598029 4.730231 3.613993 11.152020 -1.874041 2.808159 5.141895 0.190454 0.000000 0.000000 0.000000 
-2294.536377 917.877808 1074.593994 -22.962172 25.310663 0.423196 -3.028397 -6.831750 5.041456 0.058413 1.085483 -0.941870 1.020808 -1.395580 0.661960 -4.132775 -16.517859 11.365524 0.000000 0.000000 0.000000 -0.343762 10.750055 2.784215 23.375668 17.222997 -13.955382 -162.581831 -48.278081 150.917869 0.000000 0.000000 0.000000 6.678713 14.470255 7.468890 11.876558 14.559254 -0.975755 0.474416 -72.556142 -9.308248 0.000000 0.000000 0.000000 7.784914 -40.244510 -25.468009 5.588115 18.306256 6.714305 5.359490 3.894112 2.380704 0.000000 0.000000 0.000000 -1.163033 -20.002312 4.712264 3.193372 11.271600 -1.981529 2.360375 6.423535 -0.256237 0.000000 0.000000 0.000000 
-2278.719238 910.496887 1075.061035 -24.019390 25.470620 0.562271 -2.822551 -6.731490 5.027153 0.241927 1.144747 -0.914746 1.226804 -1.359782 0.634468 -4.027351 -16.451038 11.237381 0.000000 0.000000 0.000000 -0.686437 9.883562 2.669338 22.020874 16.630771 -15.363964 -161.614410 -46.967502 156.477957 0.000000 0.000000 0.000000 7.066341 15.363918 7.910616 13.316679 15.062196 0.665958 1.267646 -79.146605 -10.016362 0.000000 0.000000 0.000000 8.009653 -39.850032 -24.915796 5.253090 12.022010 4.576155 5.605072 6.763439 2.629388 0.000000 0.000000 0.000000 -1.138469 -19.422163 4.656803 3.028455 11.951883 -2.239014 2.047235 7.605802 -0.628779 0.000000 0.000000 0.000000 
